<svg width="40" height="40" viewBox="0 0 40 40" fill="none" xmlns="http://www.w3.org/2000/svg">
<path fill-rule="evenodd" clip-rule="evenodd" d="M17.6932 4.36006C19.6311 2.42218 22.2594 1.3335 25 1.3335H30C31.1046 1.3335 32 2.22893 32 3.3335V10.0002C32 11.1047 31.1046 12.0002 30 12.0002H25.3333V14.6668H30C30.6159 14.6668 31.1974 14.9506 31.5764 15.436C31.9554 15.9214 32.0897 16.5544 31.9403 17.1519L30.2736 23.8186C30.051 24.7089 29.2511 25.3335 28.3333 25.3335H25.3333V36.6668C25.3333 37.7714 24.4379 38.6668 23.3333 38.6668H16.6667C15.5621 38.6668 14.6667 37.7714 14.6667 36.6668V25.3335H11.6667C10.5621 25.3335 9.66667 24.4381 9.66667 23.3335V16.6668C9.66667 15.5623 10.5621 14.6668 11.6667 14.6668H14.6667V11.6668C14.6667 8.92626 15.7554 6.29794 17.6932 4.36006ZM25 5.3335C23.3203 5.3335 21.7094 6.00076 20.5217 7.18849C19.3339 8.37622 18.6667 9.98712 18.6667 11.6668V16.6668C18.6667 17.7714 17.7712 18.6668 16.6667 18.6668H13.6667V21.3335H16.6667C17.7712 21.3335 18.6667 22.2289 18.6667 23.3335V34.6668H21.3333V23.3335C21.3333 22.2289 22.2288 21.3335 23.3333 21.3335H26.7718L27.4384 18.6668H23.3333C22.2288 18.6668 21.3333 17.7714 21.3333 16.6668V11.6668C21.3333 10.6944 21.7196 9.76174 22.4073 9.0741C23.0949 8.38647 24.0275 8.00016 25 8.00016H28V5.3335H25Z" fill="black"/>
</svg>
