<svg width="45" height="45" viewBox="0 0 45 45" fill="none" xmlns="http://www.w3.org/2000/svg">
<path fill-rule="evenodd" clip-rule="evenodd" d="M20.625 8.125C13.7214 8.125 8.125 13.7214 8.125 20.625C8.125 27.5286 13.7214 33.125 20.625 33.125C27.5286 33.125 33.125 27.5286 33.125 20.625C33.125 13.7214 27.5286 8.125 20.625 8.125ZM3.125 20.625C3.125 10.96 10.96 3.125 20.625 3.125C30.29 3.125 38.125 10.96 38.125 20.625C38.125 30.29 30.29 38.125 20.625 38.125C10.96 38.125 3.125 30.29 3.125 20.625Z" fill="white"/>
<path fill-rule="evenodd" clip-rule="evenodd" d="M29.451 29.451C30.4273 28.4747 32.0102 28.4747 32.9865 29.451L41.1428 37.6072C42.1191 38.5835 42.1191 40.1665 41.1428 41.1428C40.1665 42.1191 38.5835 42.1191 37.6072 41.1428L29.451 32.9865C28.4747 32.0102 28.4747 30.4273 29.451 29.451Z" fill="white"/>
</svg>
