<svg width="67" height="397" viewBox="0 0 67 397" fill="none" xmlns="http://www.w3.org/2000/svg">
<path d="M54.4264 363.72C49.6717 353.657 47.7607 342.847 45.9278 332.344C44.7953 325.944 43.6317 319.338 41.8467 312.915C36.3936 293.233 27.9925 274.489 16.929 257.322L15.0521 254.426C7.02799 242.125 -2.03381 228.213 1.49017 213.784C4.18976 202.831 13.5808 193.915 30.2111 186.533C41.0811 181.707 49.1292 177.251 55.5375 172.509C64.014 166.292 69.3175 159.539 71.4606 152.488C73.9106 144.307 72.0743 135.365 65.9952 125.916C63.4316 121.918 60.3726 118.066 57.4225 114.35C51.9274 107.401 46.2271 100.229 43.449 91.7979C43.2105 91.059 42.99 90.3115 42.7962 89.5736C41.0606 82.5682 41.2892 75.2199 43.4568 68.3359C45.587 61.3753 49.1427 54.9344 53.8978 49.4228C63.9513 37.6717 77.9688 30.3076 89.0679 25.2405C104.262 18.1926 119.97 12.3123 136.057 7.65077C154.586 2.3911 171.175 -0.0936292 185.446 0.241897C198.873 0.541823 212.016 4.17133 223.694 10.8046C235.925 17.9656 244.713 27.9263 248.978 39.6696C253.101 50.9937 252.936 63.2377 252.784 75.0884C252.725 79.9495 252.667 84.9762 252.903 89.8528C253.574 103.255 256.546 116.441 261.688 128.836C266.786 141.253 273.885 152.75 282.702 162.871C287.169 167.833 291.896 172.555 296.863 177.017C310.221 189.441 322.833 201.178 323.629 223.11C324.058 235.394 319.404 247.735 310.15 258.721C302.018 268.382 290.523 276.732 277.791 282.251C264.403 288.045 249.976 291.5 236.016 294.844C224.769 297.537 213.157 300.302 202.104 304.319C189.757 308.804 172.579 317.274 160.858 332.191C155.522 338.97 152.078 346.99 148.747 354.757C145.921 361.346 142.996 368.17 138.896 374.332C134.022 381.667 125.632 391.227 113.342 395.154C103.498 398.29 92.675 397.177 82.0902 392.003C72.1496 387.036 63.7682 379.429 57.8649 370.015C56.594 367.987 55.4458 365.885 54.4264 363.72ZM30.7664 279.96C35.724 290.481 39.7757 301.406 42.8778 312.616C44.6794 319.097 45.8468 325.735 46.9787 332.157C49.3226 345.427 51.5097 357.898 58.7764 369.462C64.5794 378.7 72.8118 386.162 82.5725 391.034C92.9182 396.1 103.438 397.179 113.007 394.118C124.973 390.3 133.179 380.937 137.956 373.747C141.996 367.669 144.902 360.898 147.714 354.35C151.073 346.525 154.568 338.425 159.964 331.54C171.855 316.421 189.228 307.848 201.706 303.313C212.791 299.292 224.456 296.501 235.744 293.8C249.654 290.468 264.049 287.062 277.37 281.244C289.949 275.798 301.294 267.551 309.325 258.028C318.404 247.257 322.971 235.2 322.536 223.162C321.749 201.668 309.289 190.092 296.102 177.819C291.111 173.335 286.359 168.592 281.867 163.608C272.978 153.407 265.823 141.816 260.689 129.297C255.482 116.777 252.475 103.452 251.801 89.9088C251.557 84.9917 251.62 79.9518 251.684 75.0774C251.82 63.3113 251.961 51.1562 247.941 40.0491C243.768 28.5494 235.187 18.7678 223.14 11.763C211.61 5.21403 198.634 1.63123 185.377 1.3363C171.217 1.00326 154.705 3.4852 136.311 8.70315C120.288 13.3438 104.642 19.2016 89.5112 26.2255C78.5201 31.2637 64.6211 38.5276 54.7143 50.1209C50.0597 55.5153 46.5786 61.8192 44.4925 68.6318C42.3869 75.3212 42.1599 82.4606 43.8363 89.2702C44.0306 89.9858 44.2425 90.7152 44.4773 91.4227C47.2013 99.6693 52.8318 106.764 58.2969 113.649C61.2599 117.392 64.3274 121.263 66.9348 125.306C73.191 135.036 75.0741 144.289 72.5229 152.794C70.3482 160.059 64.8529 166.991 56.1978 173.392C49.7214 178.177 41.61 182.662 30.6677 187.523C14.3671 194.76 5.17377 203.439 2.58437 214.064C1.10374 220.293 1.82784 226.952 4.94835 234.469C7.69065 241.093 11.8586 247.573 15.907 253.801L17.7972 256.701C22.6247 264.162 26.9571 271.932 30.7664 279.96Z" fill="white" fill-opacity="0.57"/>
</svg>
