<svg width="29" height="28" viewBox="0 0 29 28" fill="none" xmlns="http://www.w3.org/2000/svg">
<circle cx="14.4675" cy="13.8186" r="13.8186" fill="#FAC70F"/>
<path d="M17.506 14.9064L17.8663 12.5571H15.6133V11.0347C15.5977 10.8594 15.6217 10.6828 15.6835 10.5181C15.7454 10.3533 15.8434 10.2045 15.9705 10.0827C16.0975 9.96091 16.2503 9.86923 16.4176 9.81443C16.5848 9.75963 16.7622 9.74311 16.9367 9.76609H17.961V7.76527C17.3595 7.66879 16.7518 7.61645 16.1427 7.60865C15.7236 7.57667 15.3025 7.63726 14.9095 7.78613C14.5164 7.935 14.1609 8.16851 13.8681 8.4701C13.5753 8.7717 13.3524 9.13399 13.2153 9.53132C13.0782 9.92864 13.0301 10.3513 13.0745 10.7692V12.5586H11.0126V14.9079H13.0753V20.5838H15.6133V14.9064H17.506Z" fill="black"/>
</svg>
