<svg width="29" height="28" viewBox="0 0 29 28" fill="none" xmlns="http://www.w3.org/2000/svg">
<circle cx="14.5325" cy="13.8186" r="13.8186" fill="#FAC70F"/>
<path d="M14.7069 12.3947C14.3908 12.3947 14.0818 12.4884 13.819 12.664C13.5562 12.8396 13.3514 13.0892 13.2304 13.3812C13.1095 13.6733 13.0778 13.9946 13.1395 14.3046C13.2011 14.6146 13.3533 14.8993 13.5768 15.1228C13.8003 15.3463 14.0851 15.4985 14.3951 15.5602C14.7051 15.6219 15.0264 15.5902 15.3184 15.4693C15.6105 15.3483 15.8601 15.1435 16.0357 14.8807C16.2113 14.6179 16.305 14.3089 16.305 13.9928C16.305 13.7829 16.2636 13.5751 16.1833 13.3812C16.103 13.1873 15.9853 13.0112 15.8369 12.8628C15.6885 12.7144 15.5123 12.5967 15.3184 12.5163C15.1246 12.436 14.9167 12.3947 14.7069 12.3947ZM14.7069 11.3293C15.2337 11.3293 15.7486 11.4855 16.1866 11.7782C16.6247 12.0708 16.966 12.4868 17.1676 12.9735C17.3692 13.4602 17.422 13.9958 17.3192 14.5124C17.2164 15.0291 16.9628 15.5037 16.5903 15.8762C16.2178 16.2487 15.7432 16.5024 15.2265 16.6051C14.7098 16.7079 14.1743 16.6552 13.6876 16.4536C13.2009 16.252 12.7849 15.9106 12.4922 15.4726C12.1996 15.0346 12.0434 14.5196 12.0434 13.9928C12.0434 13.643 12.1122 13.2967 12.2461 12.9735C12.38 12.6504 12.5762 12.3567 12.8235 12.1094C13.323 11.6099 14.0005 11.3293 14.7069 11.3293ZM18.1694 11.1961C18.1694 11.3278 18.1304 11.4566 18.0572 11.5661C17.9841 11.6756 17.8801 11.7609 17.7584 11.8113C17.6367 11.8617 17.5028 11.8749 17.3737 11.8492C17.2445 11.8235 17.1258 11.7601 17.0327 11.667C16.9396 11.5738 16.8762 11.4552 16.8505 11.326C16.8248 11.1969 16.838 11.063 16.8884 10.9413C16.9388 10.8196 17.0241 10.7156 17.1336 10.6425C17.2431 10.5693 17.3719 10.5302 17.5036 10.5302C17.591 10.5302 17.6776 10.5475 17.7584 10.5809C17.8392 10.6144 17.9126 10.6634 17.9744 10.7253C18.0362 10.7871 18.0853 10.8605 18.1188 10.9413C18.1522 11.0221 18.1694 11.1087 18.1694 11.1961ZM14.7069 9.73118C13.3906 9.73118 13.1738 9.73118 12.5606 9.76215C12.2336 9.76647 11.9098 9.82616 11.6028 9.93869C11.387 10.0222 11.1911 10.1499 11.0275 10.3135C10.8639 10.477 10.7363 10.673 10.6528 10.8887C10.5401 11.1957 10.4804 11.5196 10.4762 11.8465C10.4483 12.435 10.4452 12.6401 10.4452 13.9928C10.4452 15.3091 10.4452 15.5259 10.4762 16.1391C10.4808 16.4658 10.5405 16.7893 10.6528 17.0961C10.7359 17.312 10.8633 17.508 11.0268 17.6717C11.1903 17.8353 11.3862 17.9629 11.602 18.0462C11.9092 18.1589 12.2333 18.2189 12.5606 18.2235C13.149 18.2513 13.3542 18.2544 14.7069 18.2544C16.0231 18.2544 16.2399 18.2544 16.8532 18.2235C17.1798 18.2187 17.5033 18.1591 17.8102 18.0469C18.0274 17.9666 18.2239 17.8389 18.3855 17.673C18.5521 17.5118 18.6802 17.3152 18.7602 17.0977C18.8725 16.7903 18.9322 16.4663 18.9368 16.1391C18.9646 15.5507 18.9677 15.3455 18.9677 13.9928C18.9677 12.6765 18.9677 12.4597 18.9368 11.8465C18.9323 11.5196 18.8726 11.1957 18.7602 10.8887C18.6799 10.6713 18.5519 10.4747 18.3855 10.3134C18.2244 10.1467 18.0278 10.0186 17.8102 9.93869C17.5032 9.82613 17.1793 9.76644 16.8524 9.76215C16.2647 9.73428 16.0595 9.73118 14.7069 9.73118ZM14.7069 8.66577C16.154 8.66577 16.3329 8.67119 16.9027 8.69752C17.3446 8.7067 17.7818 8.79046 18.1958 8.94529C18.5515 9.07846 18.8737 9.28806 19.1396 9.55929C19.4111 9.82565 19.6211 10.148 19.7552 10.5039C19.9098 10.918 19.9936 11.3551 20.0029 11.797C20.0277 12.3645 20.0347 12.5457 20.0347 13.9928C20.0347 15.4399 20.0293 15.6188 20.0029 16.1887C19.9935 16.6305 19.9097 17.0676 19.7552 17.4817C19.6185 17.8361 19.4092 18.158 19.1406 18.4265C18.872 18.6951 18.5502 18.9045 18.1958 19.0411C17.7817 19.1957 17.3446 19.2795 16.9027 19.2889C16.3352 19.3137 16.154 19.3206 14.7069 19.3206C13.2597 19.3206 13.0809 19.3152 12.511 19.2889C12.0692 19.2794 11.632 19.1957 11.218 19.0411C10.864 18.9045 10.5426 18.6953 10.2743 18.427C10.006 18.1587 9.79678 17.8372 9.66013 17.4833C9.50526 17.0693 9.42149 16.6321 9.41236 16.1902C9.38681 15.6203 9.37984 15.4399 9.37984 13.9928C9.37984 12.5457 9.38526 12.3668 9.41158 11.797C9.42072 11.3551 9.50449 10.9179 9.65935 10.5039C9.796 10.1497 10.0053 9.82808 10.2737 9.55964C10.5421 9.29121 10.8638 9.08193 11.218 8.94529C11.6319 8.79042 12.0691 8.70665 12.511 8.69752C13.0786 8.67274 13.2597 8.66577 14.7069 8.66577Z" fill="black"/>
</svg>
