<svg width="101" height="406" viewBox="0 0 101 406" fill="none" xmlns="http://www.w3.org/2000/svg">
<path d="M72.0065 377.879C66.0068 368.505 62.7323 358.028 59.5744 347.843C57.6348 341.641 55.6379 335.237 53.0481 329.094C45.1285 310.268 34.4048 292.75 21.2415 277.134L19.0105 274.501C9.48264 263.325 -1.27999 250.682 0.374479 235.922C1.65465 224.714 9.83138 214.673 25.384 205.229C35.5495 199.056 42.9635 193.61 48.7145 188.089C56.3285 180.842 60.7272 173.467 61.9532 166.2C63.3395 157.774 60.3773 149.139 53.1425 140.543C50.0897 136.904 46.5643 133.474 43.1642 130.165C36.8276 123.974 30.2588 117.588 26.4278 109.58C26.0969 108.877 25.7829 108.164 25.4966 107.457C22.8814 100.73 22.1707 93.4127 23.4423 86.3083C24.6671 79.1329 27.3721 72.2909 31.3851 66.2178C39.8573 53.2801 52.8208 44.1879 63.1827 37.7461C77.3531 28.8174 92.1831 20.9812 107.544 14.3054C125.25 6.72483 141.386 2.14411 155.584 0.656228C168.94 -0.759311 182.438 1.16384 194.867 6.25303C207.912 11.7951 217.898 20.5533 223.627 31.6564C229.161 42.362 230.559 54.5271 231.921 66.3003C232.482 71.1293 233.066 76.1222 233.922 80.9289C236.298 94.1357 240.927 106.835 247.609 118.473C254.249 130.138 262.757 140.635 272.793 149.548C277.857 153.9 283.147 157.981 288.643 161.773C303.477 172.391 317.484 182.423 321.071 204.074C323.063 216.204 320.022 229.037 312.245 241.114C305.412 251.733 295.077 261.482 283.152 268.58C270.613 276.035 256.744 281.301 243.326 286.399C232.514 290.505 221.35 294.729 210.899 300.123C199.225 306.147 183.268 316.739 173.546 333.03C169.119 340.434 166.726 348.828 164.413 356.957C162.451 363.852 160.42 370.993 157.139 377.628C153.241 385.525 146.14 396.078 134.451 401.54C125.087 405.907 114.211 406.183 103.052 402.402C92.5595 398.744 83.2761 392.268 76.22 383.684C74.7008 381.835 73.2938 379.897 72.0065 377.879ZM37.854 297.822C44.1133 307.625 49.5258 317.944 54.0325 328.666C56.6463 334.865 58.6509 341.299 60.5929 347.524C64.6106 360.387 68.3709 372.477 77.0535 383.02C83.9876 391.441 93.1048 397.793 103.407 401.379C114.315 405.084 124.886 404.813 133.986 400.555C145.368 395.242 152.312 384.909 156.133 377.168C159.365 370.624 161.383 363.538 163.337 356.684C165.67 348.494 168.103 340.015 172.576 332.498C182.441 315.986 198.578 305.266 210.376 299.176C220.857 293.774 232.072 289.517 242.923 285.398C256.294 280.319 270.136 275.105 282.606 267.635C294.388 260.628 304.588 251.002 311.338 240.531C318.969 228.69 321.96 216.15 319.994 204.265C316.471 183.048 302.636 173.155 287.991 162.665C282.468 158.855 277.15 154.756 272.059 150.386C261.941 141.403 253.366 130.819 246.677 119.057C239.915 107.304 235.233 94.4712 232.836 81.125C231.967 76.2792 231.387 71.2724 230.828 66.4297C229.462 54.7424 228.051 42.6686 222.647 32.1652C217.041 21.2918 207.282 12.6849 194.44 7.27421C182.168 2.24978 168.841 0.351728 155.655 1.75051C141.569 3.22659 125.508 7.79484 107.93 15.3168C92.6297 21.9637 77.8594 29.7696 63.748 38.6665C53.4896 45.0658 40.6308 54.0435 32.284 66.806C28.3556 72.7501 25.7073 79.4466 24.5073 86.4697C23.2723 93.3731 23.958 100.483 26.4894 107.023C26.7735 107.708 27.0767 108.404 27.3998 109.076C31.1537 116.908 37.6432 123.226 43.9421 129.358C47.3584 132.692 50.8946 136.14 53.9965 139.818C61.443 148.67 64.491 157.607 63.0457 166.368C61.8157 173.851 57.2497 181.428 49.482 188.88C43.669 194.453 36.1961 199.936 25.9632 206.153C10.7191 215.41 2.70818 225.192 1.49537 236.06C0.821596 242.427 2.3893 248.939 6.44336 255.997C10.0082 262.216 14.9689 268.112 19.7786 273.772L22.0235 276.408C27.7633 283.192 33.0515 290.345 37.854 297.822Z" fill="white" fill-opacity="0.57"/>
</svg>
