<svg width="68" height="68" viewBox="0 0 68 68" fill="none" xmlns="http://www.w3.org/2000/svg">
<circle cx="34.0056" cy="34" r="34" fill="#4C4D52"/>
<path d="M48.1941 41.3734C47.2016 40.3734 44.7978 38.9141 43.6315 38.326C42.1127 37.5611 41.9877 37.4986 40.7939 38.3854C39.9976 38.9772 39.4682 39.506 38.5364 39.3072C37.6045 39.1085 35.5794 37.9879 33.8062 36.2205C32.0331 34.4531 30.8474 32.3694 30.648 31.4407C30.4487 30.512 30.9862 29.9889 31.5724 29.1908C32.3987 28.0658 32.3362 27.8783 31.6299 26.3597C31.0793 25.1785 29.5774 22.7973 28.5736 21.8099C27.4998 20.7493 27.4998 20.9368 26.8079 21.2243C26.2447 21.4612 25.7043 21.7493 25.1935 22.0848C24.1935 22.7492 23.6385 23.301 23.2504 24.1304C22.8622 24.9597 22.6878 26.904 24.6923 30.5451C26.6967 34.1862 28.103 36.048 31.0137 38.9504C33.9244 41.8527 36.1625 43.4133 39.4345 45.2482C43.4821 47.515 45.0346 47.0731 45.8665 46.6857C46.6984 46.2982 47.2528 45.7482 47.9185 44.7482C48.2549 44.2384 48.5436 43.6986 48.781 43.1358C49.0691 42.4465 49.2566 42.4465 48.1941 41.3734Z" stroke="#40DDB6" stroke-width="2" stroke-miterlimit="10"/>
</svg>
