<svg width="200" height="38" viewBox="0 0 200 38" fill="none" xmlns="http://www.w3.org/2000/svg">
<path d="M71.7056 10.45L67.1306 28H61.9556L59.1556 16.45L56.2556 28H51.0806L46.6306 10.45H51.2056L53.7306 23.225L56.8556 10.45H61.5556L64.5556 23.225L67.1056 10.45H71.7056ZM82.4246 13.9C84.0246 13.9 85.3079 14.4333 86.2746 15.5C87.2412 16.55 87.7246 18 87.7246 19.85V28H83.4746V20.425C83.4746 19.4917 83.2329 18.7667 82.7496 18.25C82.2662 17.7333 81.6162 17.475 80.7996 17.475C79.9829 17.475 79.3329 17.7333 78.8496 18.25C78.3662 18.7667 78.1246 19.4917 78.1246 20.425V28H73.8496V9.5H78.1246V15.925C78.5579 15.3083 79.1496 14.8167 79.8996 14.45C80.6496 14.0833 81.4912 13.9 82.4246 13.9ZM92.8453 12.6C92.0953 12.6 91.4786 12.3833 90.9953 11.95C90.5286 11.5 90.2953 10.95 90.2953 10.3C90.2953 9.63333 90.5286 9.08333 90.9953 8.65C91.4786 8.2 92.0953 7.975 92.8453 7.975C93.5786 7.975 94.1786 8.2 94.6453 8.65C95.1286 9.08333 95.3703 9.63333 95.3703 10.3C95.3703 10.95 95.1286 11.5 94.6453 11.95C94.1786 12.3833 93.5786 12.6 92.8453 12.6ZM94.9703 14.05V28H90.6953V14.05H94.9703ZM105.843 24.375V28H103.668C102.118 28 100.91 27.625 100.043 26.875C99.1766 26.1083 98.7433 24.8667 98.7433 23.15V17.6H97.0433V14.05H98.7433V10.65H103.018V14.05H105.818V17.6H103.018V23.2C103.018 23.6167 103.118 23.9167 103.318 24.1C103.518 24.2833 103.852 24.375 104.318 24.375H105.843ZM121.375 20.8C121.375 21.2 121.35 21.6167 121.3 22.05H111.625C111.691 22.9167 111.966 23.5833 112.45 24.05C112.95 24.5 113.558 24.725 114.275 24.725C115.341 24.725 116.083 24.275 116.5 23.375H121.05C120.816 24.2917 120.391 25.1167 119.775 25.85C119.175 26.5833 118.416 27.1583 117.5 27.575C116.583 27.9917 115.558 28.2 114.425 28.2C113.058 28.2 111.841 27.9083 110.775 27.325C109.708 26.7417 108.875 25.9083 108.275 24.825C107.675 23.7417 107.375 22.475 107.375 21.025C107.375 19.575 107.666 18.3083 108.25 17.225C108.85 16.1417 109.683 15.3083 110.75 14.725C111.816 14.1417 113.041 13.85 114.425 13.85C115.775 13.85 116.975 14.1333 118.025 14.7C119.075 15.2667 119.891 16.075 120.475 17.125C121.075 18.175 121.375 19.4 121.375 20.8ZM117 19.675C117 18.9417 116.75 18.3583 116.25 17.925C115.75 17.4917 115.125 17.275 114.375 17.275C113.658 17.275 113.05 17.4833 112.55 17.9C112.066 18.3167 111.766 18.9083 111.65 19.675H117ZM122.905 19.2C122.905 17.4667 123.28 15.925 124.03 14.575C124.78 13.2083 125.822 12.15 127.155 11.4C128.505 10.6333 130.03 10.25 131.73 10.25C133.813 10.25 135.597 10.8 137.08 11.9C138.563 13 139.555 14.5 140.055 16.4H135.355C135.005 15.6667 134.505 15.1083 133.855 14.725C133.222 14.3417 132.497 14.15 131.68 14.15C130.363 14.15 129.297 14.6083 128.48 15.525C127.663 16.4417 127.255 17.6667 127.255 19.2C127.255 20.7333 127.663 21.9583 128.48 22.875C129.297 23.7917 130.363 24.25 131.68 24.25C132.497 24.25 133.222 24.0583 133.855 23.675C134.505 23.2917 135.005 22.7333 135.355 22H140.055C139.555 23.9 138.563 25.4 137.08 26.5C135.597 27.5833 133.813 28.125 131.73 28.125C130.03 28.125 128.505 27.75 127.155 27C125.822 26.2333 124.78 25.175 124.03 23.825C123.28 22.475 122.905 20.9333 122.905 19.2ZM149.023 28.2C147.656 28.2 146.423 27.9083 145.323 27.325C144.239 26.7417 143.381 25.9083 142.748 24.825C142.131 23.7417 141.823 22.475 141.823 21.025C141.823 19.5917 142.139 18.3333 142.773 17.25C143.406 16.15 144.273 15.3083 145.373 14.725C146.473 14.1417 147.706 13.85 149.073 13.85C150.439 13.85 151.673 14.1417 152.773 14.725C153.873 15.3083 154.739 16.15 155.373 17.25C156.006 18.3333 156.323 19.5917 156.323 21.025C156.323 22.4583 155.998 23.725 155.348 24.825C154.714 25.9083 153.839 26.7417 152.723 27.325C151.623 27.9083 150.389 28.2 149.023 28.2ZM149.023 24.5C149.839 24.5 150.531 24.2 151.098 23.6C151.681 23 151.973 22.1417 151.973 21.025C151.973 19.9083 151.689 19.05 151.123 18.45C150.573 17.85 149.889 17.55 149.073 17.55C148.239 17.55 147.548 17.85 146.998 18.45C146.448 19.0333 146.173 19.8917 146.173 21.025C146.173 22.1417 146.439 23 146.973 23.6C147.523 24.2 148.206 24.5 149.023 24.5ZM172.487 21C172.487 19.5667 172.754 18.3083 173.287 17.225C173.837 16.1417 174.579 15.3083 175.512 14.725C176.445 14.1417 177.487 13.85 178.637 13.85C179.62 13.85 180.479 14.05 181.212 14.45C181.962 14.85 182.537 15.375 182.937 16.025V14.05H187.212V28H182.937V26.025C182.52 26.675 181.937 27.2 181.187 27.6C180.454 28 179.595 28.2 178.612 28.2C177.479 28.2 176.445 27.9083 175.512 27.325C174.579 26.725 173.837 25.8833 173.287 24.8C172.754 23.7 172.487 22.4333 172.487 21ZM182.937 21.025C182.937 19.9583 182.637 19.1167 182.037 18.5C181.454 17.8833 180.737 17.575 179.887 17.575C179.037 17.575 178.312 17.8833 177.712 18.5C177.129 19.1 176.837 19.9333 176.837 21C176.837 22.0667 177.129 22.9167 177.712 23.55C178.312 24.1667 179.037 24.475 179.887 24.475C180.737 24.475 181.454 24.1667 182.037 23.55C182.637 22.9333 182.937 22.0917 182.937 21.025ZM194.58 16.375C195.08 15.6083 195.705 15.0083 196.455 14.575C197.205 14.125 198.038 13.9 198.955 13.9V18.425H197.78C196.713 18.425 195.913 18.6583 195.38 19.125C194.846 19.575 194.58 20.375 194.58 21.525V28H190.305V14.05H194.58V16.375Z" fill="white"/>
<path d="M162.866 9.5V28H158.591V9.5H162.866ZM170.239 9.5V28H165.964V9.5H170.239Z" fill="#40DDB6"/>
<path d="M14.3812 6H8.5021L25.2664 35L28.2059 29.9152L14.3812 6Z" fill="#40DDB6"/>
<path d="M5.88472 6H0.00561523L16.5562 34.6299L19.414 29.4051L5.88472 6Z" fill="#40DDB6"/>
<path d="M32.5363 22.6948L36.3105 16.1629H30.4331L29.5968 17.61L25.4387 10.4196H39.6256L42.1762 6H17.0056L29.6001 27.7863L32.538 22.6981L32.5363 22.6948Z" fill="#6B77E5"/>
</svg>
