<svg width="162" height="60" viewBox="0 0 162 60" fill="none" xmlns="http://www.w3.org/2000/svg">
<g filter="url(#filter0_d_155_626)">
<g filter="url(#filter1_d_155_626)">
<path d="M157.762 37.8649C157.762 45.3228 151.652 51.4328 144.194 51.4328H17.5679C10.11 51.4328 4 45.3228 4 37.8649V13.7617C4 6.30384 10.11 0.193848 17.5679 0.193848H144.194C151.652 0.193848 157.762 6.30384 157.762 13.7617V37.8649Z" fill="#404040"/>
</g>
<path d="M58.9269 14.5938H59.6569V19.1938H58.9269V18.3638C58.5769 18.9138 57.9969 19.2738 57.2169 19.2738C55.9069 19.2738 54.9769 18.2638 54.9769 16.8938C54.9769 15.5138 55.9069 14.5238 57.2169 14.5238C57.9969 14.5238 58.5769 14.8738 58.9269 15.4238V14.5938ZM57.3069 18.5838C58.2969 18.5838 58.9269 17.8738 58.9269 16.8938C58.9269 15.9138 58.2969 15.2138 57.3069 15.2138C56.3269 15.2138 55.6769 15.9138 55.6769 16.8938C55.6769 17.8738 56.3269 18.5838 57.3069 18.5838ZM63.1079 14.5238C64.0279 14.5238 64.9379 15.0638 64.9379 16.3638V19.1938H64.2179V16.4638C64.2179 15.5838 63.5979 15.1538 62.9179 15.1538C62.2279 15.1538 61.6279 15.5838 61.6279 16.4638V19.1938H60.9079V14.5938H61.6279V15.2138C61.9779 14.7338 62.5379 14.5238 63.1079 14.5238ZM70.0109 12.6938H70.7409V19.1938H70.0109V18.3638C69.6609 18.9138 69.0809 19.2738 68.3009 19.2738C66.9909 19.2738 66.0609 18.2638 66.0609 16.8938C66.0609 15.5138 66.9909 14.5238 68.3009 14.5238C69.0809 14.5238 69.6609 14.8738 70.0109 15.4238V12.6938ZM68.3909 18.5838C69.3809 18.5838 70.0109 17.8738 70.0109 16.8938C70.0109 15.9138 69.3809 15.2138 68.3909 15.2138C67.4109 15.2138 66.7609 15.9138 66.7609 16.8938C66.7609 17.8738 67.4109 18.5838 68.3909 18.5838ZM72.7119 15.4438C73.0619 14.8138 73.6819 14.5338 74.3319 14.5238V15.2138C73.6219 15.2238 72.7119 15.5938 72.7119 16.7138V19.1938H71.9919V14.5938H72.7119V15.4438ZM77.1411 19.2838C75.7611 19.2838 74.8011 18.2638 74.8011 16.8938C74.8011 15.5138 75.7611 14.5138 77.1411 14.5138C78.5211 14.5138 79.4811 15.5138 79.4811 16.8938C79.4811 18.2638 78.5211 19.2838 77.1411 19.2838ZM77.1411 18.5838C78.1111 18.5838 78.7511 17.8638 78.7511 16.8938C78.7511 15.9238 78.1111 15.2138 77.1411 15.2138C76.1711 15.2138 75.5211 15.9238 75.5211 16.8938C75.5211 17.8638 76.1711 18.5838 77.1411 18.5838ZM81.0354 13.6138C80.8154 13.6138 80.5954 13.4338 80.5954 13.1638C80.5954 12.8938 80.8154 12.7338 81.0354 12.7338C81.2554 12.7338 81.4754 12.8938 81.4754 13.1638C81.4754 13.4338 81.2554 13.6138 81.0354 13.6138ZM81.3954 19.1938H80.6754V14.5938H81.4054L81.3954 19.1938ZM86.5441 12.6938H87.2741V19.1938H86.5441V18.3638C86.1941 18.9138 85.6141 19.2738 84.8341 19.2738C83.5241 19.2738 82.5941 18.2638 82.5941 16.8938C82.5941 15.5138 83.5241 14.5238 84.8341 14.5238C85.6141 14.5238 86.1941 14.8738 86.5441 15.4238V12.6938ZM84.9241 18.5838C85.9141 18.5838 86.5441 17.8738 86.5441 16.8938C86.5441 15.9138 85.9141 15.2138 84.9241 15.2138C83.9441 15.2138 83.2941 15.9138 83.2941 16.8938C83.2941 17.8738 83.9441 18.5838 84.9241 18.5838ZM94.3371 14.5938H95.0671V19.1938H94.3371V18.3638C93.9871 18.9138 93.4071 19.2738 92.6271 19.2738C91.3171 19.2738 90.3871 18.2638 90.3871 16.8938C90.3871 15.5138 91.3171 14.5238 92.6271 14.5238C93.4071 14.5238 93.9871 14.8738 94.3371 15.4238V14.5938ZM92.7171 18.5838C93.7071 18.5838 94.3371 17.8738 94.3371 16.8938C94.3371 15.9138 93.7071 15.2138 92.7171 15.2138C91.7371 15.2138 91.0871 15.9138 91.0871 16.8938C91.0871 17.8738 91.7371 18.5838 92.7171 18.5838ZM98.7481 14.5238C100.058 14.5238 100.998 15.5338 100.998 16.9038C100.998 18.2838 100.058 19.2738 98.7481 19.2738C97.9681 19.2738 97.3881 18.9238 97.0381 18.3638V21.0338H96.3181V14.5938H97.0381V15.4338C97.3881 14.8738 97.9681 14.5238 98.7481 14.5238ZM98.6581 18.5838C99.6381 18.5838 100.288 17.8838 100.288 16.9038C100.288 15.9238 99.6381 15.2138 98.6581 15.2138C97.6781 15.2138 97.0381 15.9238 97.0381 16.9038C97.0381 17.8838 97.6781 18.5838 98.6581 18.5838ZM104.539 14.5238C105.849 14.5238 106.789 15.5338 106.789 16.9038C106.789 18.2838 105.849 19.2738 104.539 19.2738C103.759 19.2738 103.179 18.9238 102.829 18.3638V21.0338H102.109V14.5938H102.829V15.4338C103.179 14.8738 103.759 14.5238 104.539 14.5238ZM104.449 18.5838C105.429 18.5838 106.079 17.8838 106.079 16.9038C106.079 15.9238 105.429 15.2138 104.449 15.2138C103.469 15.2138 102.829 15.9238 102.829 16.9038C102.829 17.8838 103.469 18.5838 104.449 18.5838ZM112.102 19.2838C110.722 19.2838 109.762 18.2638 109.762 16.8938C109.762 15.5138 110.722 14.5138 112.102 14.5138C113.482 14.5138 114.442 15.5138 114.442 16.8938C114.442 18.2638 113.482 19.2838 112.102 19.2838ZM112.102 18.5838C113.072 18.5838 113.712 17.8638 113.712 16.8938C113.712 15.9238 113.072 15.2138 112.102 15.2138C111.132 15.2138 110.482 15.9238 110.482 16.8938C110.482 17.8638 111.132 18.5838 112.102 18.5838ZM117.756 14.5238C118.676 14.5238 119.586 15.0638 119.586 16.3638V19.1938H118.866V16.4638C118.866 15.5838 118.246 15.1538 117.566 15.1538C116.876 15.1538 116.276 15.5838 116.276 16.4638V19.1938H115.556V14.5938H116.276V15.2138C116.626 14.7338 117.186 14.5238 117.756 14.5238Z" fill="white"/>
<path d="M64.1248 34.3746C64.0168 37.7046 61.8928 40.0986 58.5088 40.0986C55.0348 40.0986 52.6588 37.5786 52.6588 34.1046C52.6588 30.6306 55.0348 28.1106 58.5088 28.1106C60.5788 28.1106 62.2348 29.0106 63.2428 30.4506L62.1268 31.2426C61.2988 30.0906 60.0028 29.4786 58.5088 29.4786C55.8268 29.4786 54.0088 31.4226 54.0088 34.1046C54.0088 36.7866 55.8268 38.7306 58.5088 38.7306C60.7228 38.7306 62.3608 37.3086 62.5948 35.0586H58.4548V33.7986H64.1248V34.3746ZM70.1757 40.1166C67.6917 40.1166 65.9637 38.2806 65.9637 35.8146C65.9637 33.3306 67.6917 31.5306 70.1757 31.5306C72.6597 31.5306 74.3877 33.3306 74.3877 35.8146C74.3877 38.2806 72.6597 40.1166 70.1757 40.1166ZM70.1757 38.8566C71.9217 38.8566 73.0737 37.5606 73.0737 35.8146C73.0737 34.0686 71.9217 32.7906 70.1757 32.7906C68.4297 32.7906 67.2597 34.0686 67.2597 35.8146C67.2597 37.5606 68.4297 38.8566 70.1757 38.8566ZM80.3535 40.1166C77.8695 40.1166 76.1415 38.2806 76.1415 35.8146C76.1415 33.3306 77.8695 31.5306 80.3535 31.5306C82.8375 31.5306 84.5655 33.3306 84.5655 35.8146C84.5655 38.2806 82.8375 40.1166 80.3535 40.1166ZM80.3535 38.8566C82.0995 38.8566 83.2515 37.5606 83.2515 35.8146C83.2515 34.0686 82.0995 32.7906 80.3535 32.7906C78.6075 32.7906 77.4375 34.0686 77.4375 35.8146C77.4375 37.5606 78.6075 38.8566 80.3535 38.8566ZM93.4292 31.6746H94.7432V39.3426C94.7432 41.7186 93.0512 43.3746 90.3872 43.3746C88.9472 43.3746 87.7232 42.8166 86.9672 41.9166L87.8492 41.1786C88.5152 41.9166 89.4332 42.2406 90.3872 42.2406C91.9172 42.2406 93.4292 41.3226 93.4292 39.3426V38.4606C92.7992 39.4506 91.7552 40.0986 90.3512 40.0986C87.9932 40.0986 86.3192 38.2806 86.3192 35.8146C86.3192 33.3486 87.9932 31.5486 90.3512 31.5486C91.7552 31.5486 92.7992 32.1786 93.4292 33.1686V31.6746ZM90.5132 38.8566C92.2772 38.8566 93.4292 37.5786 93.4292 35.8146C93.4292 34.0506 92.2772 32.7906 90.5132 32.7906C88.7492 32.7906 87.5792 34.0506 87.5792 35.8146C87.5792 37.5786 88.7492 38.8566 90.5132 38.8566ZM98.291 39.9546H96.995V28.2546H98.291V39.9546ZM104.397 31.5306C106.773 31.5306 108.357 33.3486 108.357 35.8146V36.2286H101.571C101.733 37.8846 102.867 38.9826 104.505 38.9826C105.729 38.9826 106.575 38.4246 107.043 37.7226L107.961 38.3886C107.241 39.4506 106.017 40.1166 104.505 40.1166C101.985 40.1166 100.311 38.2806 100.311 35.8146C100.311 33.3486 101.913 31.5306 104.397 31.5306ZM104.397 32.6106C102.777 32.6106 101.751 33.7086 101.571 35.3286H107.151C106.971 33.7626 105.945 32.6106 104.397 32.6106ZM119.249 28.2546C121.013 28.2546 122.597 29.6586 122.597 31.8186C122.597 33.9786 121.013 35.3826 119.249 35.3826H115.325V39.9546H113.975V28.2546H119.249ZM119.051 34.0686C120.311 34.0686 121.229 33.0786 121.229 31.8186C121.229 30.5766 120.329 29.5866 119.051 29.5866H115.325V34.0686H119.051ZM125.783 39.9546H124.487V28.2546H125.783V39.9546ZM134.914 31.6746H136.228V39.9546H134.914V38.4606C134.284 39.4506 133.24 40.0986 131.836 40.0986C129.478 40.0986 127.804 38.2806 127.804 35.8146C127.804 33.3306 129.478 31.5486 131.836 31.5486C133.24 31.5486 134.284 32.1786 134.914 33.1686V31.6746ZM131.998 38.8566C133.78 38.8566 134.914 37.5786 134.914 35.8146C134.914 34.0506 133.78 32.7906 131.998 32.7906C130.234 32.7906 129.064 34.0506 129.064 35.8146C129.064 37.5786 130.234 38.8566 131.998 38.8566ZM144.185 31.6746H145.535L140.927 43.2666H139.649L140.945 39.9366L137.705 31.6746H139.055L141.611 38.1546L144.185 31.6746Z" fill="white"/>
<path d="M12.6707 42.3127V9.33643L42.3224 25.3528L12.6707 42.3127Z" fill="#5CA9B3"/>
<path d="M12.6707 9.33643L33.6515 30.3172L42.3224 25.3528L12.6707 9.33643Z" fill="#C8DB9B"/>
<path d="M33.4718 20.5679L12.6707 42.3125L42.3224 25.3526L33.4718 20.5679Z" fill="#AC5067"/>
<path d="M33.6517 30.317L42.3225 25.3526L33.4719 20.5679L28.7996 25.4649L33.6517 30.317Z" fill="#F4A676"/>
</g>
<defs>
<filter id="filter0_d_155_626" x="0" y="0.193848" width="161.762" height="59.2388" filterUnits="userSpaceOnUse" color-interpolation-filters="sRGB">
<feFlood flood-opacity="0" result="BackgroundImageFix"/>
<feColorMatrix in="SourceAlpha" type="matrix" values="0 0 0 0 0 0 0 0 0 0 0 0 0 0 0 0 0 0 127 0" result="hardAlpha"/>
<feOffset dy="4"/>
<feGaussianBlur stdDeviation="2"/>
<feComposite in2="hardAlpha" operator="out"/>
<feColorMatrix type="matrix" values="0 0 0 0 0 0 0 0 0 0 0 0 0 0 0 0 0 0 0.25 0"/>
<feBlend mode="normal" in2="BackgroundImageFix" result="effect1_dropShadow_155_626"/>
<feBlend mode="normal" in="SourceGraphic" in2="effect1_dropShadow_155_626" result="shape"/>
</filter>
<filter id="filter1_d_155_626" x="0" y="0.193848" width="161.762" height="59.2388" filterUnits="userSpaceOnUse" color-interpolation-filters="sRGB">
<feFlood flood-opacity="0" result="BackgroundImageFix"/>
<feColorMatrix in="SourceAlpha" type="matrix" values="0 0 0 0 0 0 0 0 0 0 0 0 0 0 0 0 0 0 127 0" result="hardAlpha"/>
<feOffset dy="4"/>
<feGaussianBlur stdDeviation="2"/>
<feComposite in2="hardAlpha" operator="out"/>
<feColorMatrix type="matrix" values="0 0 0 0 0 0 0 0 0 0 0 0 0 0 0 0 0 0 0.25 0"/>
<feBlend mode="normal" in2="BackgroundImageFix" result="effect1_dropShadow_155_626"/>
<feBlend mode="normal" in="SourceGraphic" in2="effect1_dropShadow_155_626" result="shape"/>
</filter>
</defs>
</svg>
