<svg width="162" height="60" viewBox="0 0 162 60" fill="none" xmlns="http://www.w3.org/2000/svg">
<g filter="url(#filter0_d_155_614)">
<g filter="url(#filter1_d_155_614)">
<path d="M157.762 37.8874C157.762 45.3453 151.652 51.4553 144.194 51.4553H17.5679C10.11 51.4553 4 45.3453 4 37.8874V13.7618C4 6.30391 10.11 0.193848 17.5679 0.193848H144.194C151.652 0.193848 157.762 6.30391 157.762 13.7618V37.8874Z" fill="#404040"/>
</g>
<path d="M62.5246 19.0435L61.8746 17.4435H58.8546L58.2046 19.0435H57.4046L60.0746 12.5435H60.6546L63.3246 19.0435H62.5246ZM59.1346 16.7435H61.5846L60.3546 13.7135L59.1346 16.7435ZM64.9732 19.0435L63.1632 14.4435H63.9132L65.3332 18.0535L66.7632 14.4435H67.5132L65.6832 19.0435H64.9732ZM71.9833 14.4435H72.7133V19.0435H71.9833V18.2135C71.6333 18.7635 71.0533 19.1235 70.2733 19.1235C68.9633 19.1235 68.0333 18.1135 68.0333 16.7435C68.0333 15.3635 68.9633 14.3735 70.2733 14.3735C71.0533 14.3735 71.6333 14.7235 71.9833 15.2735V14.4435ZM70.3633 18.4335C71.3533 18.4335 71.9833 17.7235 71.9833 16.7435C71.9833 15.7635 71.3533 15.0635 70.3633 15.0635C69.3833 15.0635 68.7333 15.7635 68.7333 16.7435C68.7333 17.7235 69.3833 18.4335 70.3633 18.4335ZM74.4043 13.4635C74.1843 13.4635 73.9643 13.2835 73.9643 13.0135C73.9643 12.7435 74.1843 12.5835 74.4043 12.5835C74.6243 12.5835 74.8443 12.7435 74.8443 13.0135C74.8443 13.2835 74.6243 13.4635 74.4043 13.4635ZM74.7643 19.0435H74.0443V14.4435H74.7743L74.7643 19.0435ZM76.823 19.0435H76.103V12.5435H76.823V19.0435ZM81.8954 14.4435H82.6254V19.0435H81.8954V18.2135C81.5454 18.7635 80.9654 19.1235 80.1854 19.1235C78.8754 19.1235 77.9454 18.1135 77.9454 16.7435C77.9454 15.3635 78.8754 14.3735 80.1854 14.3735C80.9654 14.3735 81.5454 14.7235 81.8954 15.2735V14.4435ZM80.2754 18.4335C81.2654 18.4335 81.8954 17.7235 81.8954 16.7435C81.8954 15.7635 81.2654 15.0635 80.2754 15.0635C79.2954 15.0635 78.6454 15.7635 78.6454 16.7435C78.6454 17.7235 79.2954 18.4335 80.2754 18.4335ZM86.3064 14.3735C87.6164 14.3735 88.5564 15.3635 88.5564 16.7435C88.5564 18.1135 87.6164 19.1235 86.3064 19.1235C85.5264 19.1235 84.9464 18.7635 84.5964 18.2135V19.0435H83.8764V12.5435H84.5964V15.2735C84.9464 14.7235 85.5264 14.3735 86.3064 14.3735ZM86.2164 18.4335C87.1964 18.4335 87.8464 17.7235 87.8464 16.7435C87.8464 15.7635 87.1964 15.0635 86.2164 15.0635C85.2364 15.0635 84.5964 15.7635 84.5964 16.7435C84.5964 17.7235 85.2364 18.4335 86.2164 18.4335ZM90.3875 19.0435H89.6675V12.5435H90.3875V19.0435ZM93.7799 14.3635C95.0999 14.3635 95.9799 15.3735 95.9799 16.7435V16.9735H92.2099C92.2999 17.8935 92.9299 18.5035 93.8399 18.5035C94.5199 18.5035 94.9899 18.1935 95.2499 17.8035L95.7599 18.1735C95.3599 18.7635 94.6799 19.1335 93.8399 19.1335C92.4399 19.1335 91.5099 18.1135 91.5099 16.7435C91.5099 15.3735 92.3999 14.3635 93.7799 14.3635ZM93.7799 14.9635C92.8799 14.9635 92.3099 15.5735 92.2099 16.4735H95.3099C95.2099 15.6035 94.6399 14.9635 93.7799 14.9635ZM101.301 19.1335C99.921 19.1335 98.961 18.1135 98.961 16.7435C98.961 15.3635 99.921 14.3635 101.301 14.3635C102.681 14.3635 103.641 15.3635 103.641 16.7435C103.641 18.1135 102.681 19.1335 101.301 19.1335ZM101.301 18.4335C102.271 18.4335 102.911 17.7135 102.911 16.7435C102.911 15.7735 102.271 15.0635 101.301 15.0635C100.331 15.0635 99.681 15.7735 99.681 16.7435C99.681 17.7135 100.331 18.4335 101.301 18.4335ZM106.955 14.3735C107.875 14.3735 108.785 14.9135 108.785 16.2135V19.0435H108.065V16.3135C108.065 15.4335 107.445 15.0035 106.765 15.0035C106.075 15.0035 105.475 15.4335 105.475 16.3135V19.0435H104.755V14.4435H105.475V15.0635C105.825 14.5835 106.385 14.3735 106.955 14.3735ZM114.22 15.0135H113.12V17.8435C113.12 18.3335 113.42 18.4535 113.76 18.4535H114.17V19.0435H113.5C112.8 19.0435 112.39 18.6435 112.39 17.9435V15.0135H111.75V14.4435H112.39V13.0435H113.12V14.4435H114.22V15.0135ZM117.414 14.3735C118.334 14.3735 119.244 14.9135 119.244 16.2135V19.0435H118.524V16.3135C118.524 15.4335 117.904 15.0035 117.224 15.0035C116.534 15.0035 115.934 15.4335 115.934 16.3135V19.0435H115.214V12.5435H115.934V15.0635C116.284 14.5835 116.844 14.3735 117.414 14.3735ZM122.637 14.3635C123.957 14.3635 124.837 15.3735 124.837 16.7435V16.9735H121.067C121.157 17.8935 121.787 18.5035 122.697 18.5035C123.377 18.5035 123.847 18.1935 124.107 17.8035L124.617 18.1735C124.217 18.7635 123.537 19.1335 122.697 19.1335C121.297 19.1335 120.367 18.1135 120.367 16.7435C120.367 15.3735 121.257 14.3635 122.637 14.3635ZM122.637 14.9635C121.737 14.9635 121.167 15.5735 121.067 16.4735H124.167C124.067 15.6035 123.497 14.9635 122.637 14.9635Z" fill="white"/>
<path d="M64.4718 40.1943L63.3018 37.3143H57.8658L56.6958 40.1943H55.2558L60.0618 28.4943H61.1058L65.9118 40.1943H64.4718ZM58.3698 36.0543H62.7798L60.5658 30.6003L58.3698 36.0543ZM71.8417 31.7883C74.1997 31.7883 75.8917 33.6063 75.8917 36.0723C75.8917 38.5563 74.1997 40.3383 71.8417 40.3383C70.4377 40.3383 69.3937 39.7083 68.7637 38.7003V43.5063H67.4677V31.9143H68.7637V33.4263C69.3937 32.4183 70.4377 31.7883 71.8417 31.7883ZM71.6797 39.0963C73.4437 39.0963 74.6137 37.8363 74.6137 36.0723C74.6137 34.3083 73.4437 33.0303 71.6797 33.0303C69.9157 33.0303 68.7637 34.3083 68.7637 36.0723C68.7637 37.8363 69.9157 39.0963 71.6797 39.0963ZM82.2655 31.7883C84.6235 31.7883 86.3155 33.6063 86.3155 36.0723C86.3155 38.5563 84.6235 40.3383 82.2655 40.3383C80.8615 40.3383 79.8175 39.7083 79.1875 38.7003V43.5063H77.8915V31.9143H79.1875V33.4263C79.8175 32.4183 80.8615 31.7883 82.2655 31.7883ZM82.1035 39.0963C83.8675 39.0963 85.0375 37.8363 85.0375 36.0723C85.0375 34.3083 83.8675 33.0303 82.1035 33.0303C80.3395 33.0303 79.1875 34.3083 79.1875 36.0723C79.1875 37.8363 80.3395 39.0963 82.1035 39.0963ZM91.5588 37.6923L92.6748 36.9543C93.0888 38.0523 94.5288 39.0423 96.4728 39.0423C98.4888 39.0423 99.3348 38.2863 99.3348 36.9363C99.3348 35.4063 97.0488 35.0463 95.9868 34.7403C94.8528 34.4343 91.9728 33.9483 91.9728 31.5363C91.9728 29.3403 93.8448 28.2963 96.3468 28.2963C98.5068 28.2963 100.235 29.3403 100.667 30.6183L99.5508 31.2843C99.2268 30.4203 97.8948 29.6463 96.2028 29.6463C94.4568 29.6463 93.5028 30.3303 93.5028 31.4823C93.5028 32.9223 95.5908 33.2283 96.7428 33.5343C97.7868 33.8403 100.829 34.4523 100.829 36.8823C100.829 39.1863 99.1548 40.3923 96.3468 40.3923C93.8268 40.3923 92.1168 39.2223 91.5588 37.6923ZM106.635 32.9403H104.655V38.0343C104.655 38.9163 105.195 39.1323 105.807 39.1323H106.545V40.1943H105.339C104.079 40.1943 103.341 39.4743 103.341 38.2143V32.9403H102.189V31.9143H103.341V29.3943H104.655V31.9143H106.635V32.9403ZM111.963 40.3563C109.479 40.3563 107.751 38.5203 107.751 36.0543C107.751 33.5703 109.479 31.7703 111.963 31.7703C114.447 31.7703 116.175 33.5703 116.175 36.0543C116.175 38.5203 114.447 40.3563 111.963 40.3563ZM111.963 39.0963C113.709 39.0963 114.861 37.8003 114.861 36.0543C114.861 34.3083 113.709 33.0303 111.963 33.0303C110.217 33.0303 109.047 34.3083 109.047 36.0543C109.047 37.8003 110.217 39.0963 111.963 39.0963ZM119.477 33.4443C120.107 32.3103 121.223 31.8063 122.393 31.7883V33.0303C121.115 33.0483 119.477 33.7143 119.477 35.7303V40.1943H118.181V31.9143H119.477V33.4443ZM127.323 31.7703C129.699 31.7703 131.283 33.5883 131.283 36.0543V36.4683H124.497C124.659 38.1243 125.793 39.2223 127.431 39.2223C128.655 39.2223 129.501 38.6643 129.969 37.9623L130.887 38.6283C130.167 39.6903 128.943 40.3563 127.431 40.3563C124.911 40.3563 123.237 38.5203 123.237 36.0543C123.237 33.5883 124.839 31.7703 127.323 31.7703ZM127.323 32.8503C125.703 32.8503 124.677 33.9483 124.497 35.5683H130.077C129.897 34.0023 128.871 32.8503 127.323 32.8503Z" fill="white"/>
<path d="M30.9334 10.9312H15.0293C13.7264 10.9312 12.6707 11.9869 12.6707 13.2898V40.2009C12.6707 41.5038 13.7264 42.5596 15.0293 42.5596H30.9334C32.2363 42.5596 33.2921 41.5038 33.2921 40.2009V13.2898C33.2921 12.0094 32.2138 10.9312 30.9334 10.9312Z" fill="white"/>
<path d="M32.1466 14.7275H13.7939V36.9214H32.1466V14.7275Z" fill="#404040"/>
<path d="M26.7328 12.3462H19.2076C18.9156 12.3462 18.646 12.5933 18.646 12.9078C18.646 13.2223 18.8931 13.4694 19.2076 13.4694H26.7328C27.0249 13.4694 27.2944 13.2223 27.2944 12.9078C27.2944 12.6158 27.0473 12.3462 26.7328 12.3462Z" fill="#6639A6"/>
<path d="M21.1846 39.5944C21.1846 38.606 21.9933 37.7749 22.9816 37.7749C23.97 37.7749 24.8012 38.5836 24.8012 39.5944C24.8012 40.5828 23.9925 41.3915 22.9816 41.3915C21.9933 41.4139 21.1846 40.6053 21.1846 39.5944Z" fill="#6639A6"/>
</g>
<defs>
<filter id="filter0_d_155_614" x="0" y="0.193848" width="161.762" height="59.2612" filterUnits="userSpaceOnUse" color-interpolation-filters="sRGB">
<feFlood flood-opacity="0" result="BackgroundImageFix"/>
<feColorMatrix in="SourceAlpha" type="matrix" values="0 0 0 0 0 0 0 0 0 0 0 0 0 0 0 0 0 0 127 0" result="hardAlpha"/>
<feOffset dy="4"/>
<feGaussianBlur stdDeviation="2"/>
<feComposite in2="hardAlpha" operator="out"/>
<feColorMatrix type="matrix" values="0 0 0 0 0 0 0 0 0 0 0 0 0 0 0 0 0 0 0.25 0"/>
<feBlend mode="normal" in2="BackgroundImageFix" result="effect1_dropShadow_155_614"/>
<feBlend mode="normal" in="SourceGraphic" in2="effect1_dropShadow_155_614" result="shape"/>
</filter>
<filter id="filter1_d_155_614" x="0" y="0.193848" width="161.762" height="59.2612" filterUnits="userSpaceOnUse" color-interpolation-filters="sRGB">
<feFlood flood-opacity="0" result="BackgroundImageFix"/>
<feColorMatrix in="SourceAlpha" type="matrix" values="0 0 0 0 0 0 0 0 0 0 0 0 0 0 0 0 0 0 127 0" result="hardAlpha"/>
<feOffset dy="4"/>
<feGaussianBlur stdDeviation="2"/>
<feComposite in2="hardAlpha" operator="out"/>
<feColorMatrix type="matrix" values="0 0 0 0 0 0 0 0 0 0 0 0 0 0 0 0 0 0 0.25 0"/>
<feBlend mode="normal" in2="BackgroundImageFix" result="effect1_dropShadow_155_614"/>
<feBlend mode="normal" in="SourceGraphic" in2="effect1_dropShadow_155_614" result="shape"/>
</filter>
</defs>
</svg>
