<svg width="140" height="32" viewBox="0 0 140 32" fill="none" xmlns="http://www.w3.org/2000/svg">
<g filter="url(#filter0_d_155_532)">
<path d="M15.8459 16.8835L21.8183 20.4882L20.2334 13.6943L25.51 9.12325L18.5615 8.53374L15.8459 2.12646L13.1303 8.53374L6.18188 9.12325L11.4585 13.6943L9.87356 20.4882L15.8459 16.8835Z" fill="#EDD146"/>
<path d="M42.9053 16.8835L48.8777 20.4882L47.2928 13.6943L52.5693 9.12325L45.6209 8.53374L42.9053 2.12646L40.1897 8.53374L33.2412 9.12325L38.5178 13.6943L36.9329 20.4882L42.9053 16.8835Z" fill="#EDD146"/>
<path d="M69.9646 16.8835L75.937 20.4882L74.3521 13.6943L79.6287 9.12325L72.6802 8.53374L69.9646 2.12646L67.249 8.53374L60.3005 9.12325L65.5771 13.6943L63.9922 20.4882L69.9646 16.8835Z" fill="#EDD146"/>
<path d="M106.688 9.12325L99.7398 8.52407L97.0242 2.12646L94.3086 8.53374L87.3601 9.12325L92.6367 13.6943L91.0518 20.4882L97.0242 16.8835L102.997 20.4882L101.421 13.6943L106.688 9.12325ZM97.0242 15.0763V6.08873L98.6767 9.99301L102.91 10.3602L99.7011 13.1435L100.668 17.2797L97.0242 15.0763Z" fill="#EDD146"/>
<path d="M133.748 9.12325L126.799 8.52407L124.083 2.12646L121.368 8.53374L114.419 9.12325L119.696 13.6943L118.111 20.4882L124.083 16.8835L130.056 20.4882L128.481 13.6943L133.748 9.12325ZM124.083 15.0763L120.45 17.2701L121.416 13.1338L118.208 10.3506L122.441 9.98335L124.083 6.08873L125.736 9.99301L129.969 10.3602L126.76 13.1435L127.727 17.2797L124.083 15.0763Z" fill="#EDD146"/>
</g>
<defs>
<filter id="filter0_d_155_532" x="0.249023" y="0.193848" width="139.431" height="31.1938" filterUnits="userSpaceOnUse" color-interpolation-filters="sRGB">
<feFlood flood-opacity="0" result="BackgroundImageFix"/>
<feColorMatrix in="SourceAlpha" type="matrix" values="0 0 0 0 0 0 0 0 0 0 0 0 0 0 0 0 0 0 127 0" result="hardAlpha"/>
<feOffset dy="4"/>
<feGaussianBlur stdDeviation="2"/>
<feComposite in2="hardAlpha" operator="out"/>
<feColorMatrix type="matrix" values="0 0 0 0 0 0 0 0 0 0 0 0 0 0 0 0 0 0 0.25 0"/>
<feBlend mode="normal" in2="BackgroundImageFix" result="effect1_dropShadow_155_532"/>
<feBlend mode="normal" in="SourceGraphic" in2="effect1_dropShadow_155_532" result="shape"/>
</filter>
</defs>
</svg>
