<svg width="140" height="32" viewBox="0 0 140 32" fill="none" xmlns="http://www.w3.org/2000/svg">
<g filter="url(#filter0_d_155_554)">
<path d="M15.9817 16.8835L21.9541 20.4882L20.3692 13.6943L25.6458 9.12325L18.6973 8.53374L15.9817 2.12646L13.2661 8.53374L6.31763 9.12325L11.5942 13.6943L10.0093 20.4882L15.9817 16.8835Z" fill="#EDD146"/>
<path d="M43.041 16.8835L49.0134 20.4882L47.4285 13.6943L52.7051 9.12325L45.7566 8.53374L43.041 2.12646L40.3254 8.53374L33.377 9.12325L38.6535 13.6943L37.0686 20.4882L43.041 16.8835Z" fill="#EDD146"/>
<path d="M70.1003 16.8835L76.0727 20.4882L74.4878 13.6943L79.7644 9.12325L72.8159 8.53374L70.1003 2.12646L67.3847 8.53374L60.4363 9.12325L65.7129 13.6943L64.128 20.4882L70.1003 16.8835Z" fill="#EDD146"/>
<path d="M106.824 9.12325L99.8755 8.52407L97.1599 2.12646L94.4443 8.53374L87.4958 9.12325L92.7724 13.6943L91.1875 20.4882L97.1599 16.8835L103.132 20.4882L101.557 13.6943L106.824 9.12325ZM97.1599 15.0763V6.08873L98.8125 9.99301L103.045 10.3602L99.8369 13.1435L100.803 17.2797L97.1599 15.0763Z" fill="#EDD146"/>
<path d="M133.883 9.12325L126.935 8.52407L124.219 2.12646L121.504 8.53374L114.555 9.12325L119.832 13.6943L118.247 20.4882L124.219 16.8835L130.192 20.4882L128.616 13.6943L133.883 9.12325ZM124.219 15.0763L120.586 17.2701L121.552 13.1338L118.343 10.3506L122.576 9.98335L124.219 6.08873L125.872 9.99301L130.105 10.3602L126.896 13.1435L127.863 17.2797L124.219 15.0763Z" fill="#EDD146"/>
</g>
<defs>
<filter id="filter0_d_155_554" x="0.384766" y="0.193848" width="139.431" height="31.1938" filterUnits="userSpaceOnUse" color-interpolation-filters="sRGB">
<feFlood flood-opacity="0" result="BackgroundImageFix"/>
<feColorMatrix in="SourceAlpha" type="matrix" values="0 0 0 0 0 0 0 0 0 0 0 0 0 0 0 0 0 0 127 0" result="hardAlpha"/>
<feOffset dy="4"/>
<feGaussianBlur stdDeviation="2"/>
<feComposite in2="hardAlpha" operator="out"/>
<feColorMatrix type="matrix" values="0 0 0 0 0 0 0 0 0 0 0 0 0 0 0 0 0 0 0.25 0"/>
<feBlend mode="normal" in2="BackgroundImageFix" result="effect1_dropShadow_155_554"/>
<feBlend mode="normal" in="SourceGraphic" in2="effect1_dropShadow_155_554" result="shape"/>
</filter>
</defs>
</svg>
