<svg width="140" height="32" viewBox="0 0 140 32" fill="none" xmlns="http://www.w3.org/2000/svg">
<g filter="url(#filter0_d_155_543)">
<path d="M15.9141 16.8835L21.8865 20.4882L20.3015 13.6943L25.5781 9.12325L18.6297 8.53374L15.9141 2.12646L13.1985 8.53374L6.25 9.12325L11.5266 13.6943L9.94167 20.4882L15.9141 16.8835Z" fill="#EDD146"/>
<path d="M42.9734 16.8835L48.9458 20.4882L47.3609 13.6943L52.6375 9.12325L45.689 8.53374L42.9734 2.12646L40.2578 8.53374L33.3093 9.12325L38.5859 13.6943L37.001 20.4882L42.9734 16.8835Z" fill="#EDD146"/>
<path d="M70.0327 16.8835L76.0051 20.4882L74.4202 13.6943L79.6968 9.12325L72.7483 8.53374L70.0327 2.12646L67.3171 8.53374L60.3687 9.12325L65.6452 13.6943L64.0603 20.4882L70.0327 16.8835Z" fill="#EDD146"/>
<path d="M97.0923 16.8835L103.065 20.4882L101.48 13.6943L106.756 9.12325L99.8079 8.53374L97.0923 2.12646L94.3767 8.53374L87.4282 9.12325L92.7048 13.6943L91.1199 20.4882L97.0923 16.8835Z" fill="#EDD146"/>
<path d="M133.816 9.12325L126.867 8.52407L124.152 2.12646L121.436 8.53374L114.488 9.12325L119.764 13.6943L118.179 20.4882L124.152 16.8835L130.124 20.4882L128.549 13.6943L133.816 9.12325ZM124.152 15.0763L120.518 17.2701L121.484 13.1338L118.276 10.3506L122.509 9.98335L124.152 6.08873L125.804 9.99301L130.037 10.3602L126.829 13.1435L127.795 17.2797L124.152 15.0763Z" fill="#EDD146"/>
</g>
<defs>
<filter id="filter0_d_155_543" x="0.317139" y="0.193848" width="139.431" height="31.1938" filterUnits="userSpaceOnUse" color-interpolation-filters="sRGB">
<feFlood flood-opacity="0" result="BackgroundImageFix"/>
<feColorMatrix in="SourceAlpha" type="matrix" values="0 0 0 0 0 0 0 0 0 0 0 0 0 0 0 0 0 0 127 0" result="hardAlpha"/>
<feOffset dy="4"/>
<feGaussianBlur stdDeviation="2"/>
<feComposite in2="hardAlpha" operator="out"/>
<feColorMatrix type="matrix" values="0 0 0 0 0 0 0 0 0 0 0 0 0 0 0 0 0 0 0.25 0"/>
<feBlend mode="normal" in2="BackgroundImageFix" result="effect1_dropShadow_155_543"/>
<feBlend mode="normal" in="SourceGraphic" in2="effect1_dropShadow_155_543" result="shape"/>
</filter>
</defs>
</svg>
