<svg width="88" height="88" viewBox="0 0 88 88" fill="none" xmlns="http://www.w3.org/2000/svg">
<g filter="url(#filter0_d_1_3755)">
<circle cx="43.6607" cy="39.6607" r="39.6607" fill="#37393F"/>
<path d="M42.6716 1.51307C52.3907 1.26106 61.8395 4.72822 69.0889 11.2067C76.3384 17.6852 80.8417 26.6864 81.6795 36.3726C82.5173 46.0588 79.6263 55.6996 73.5969 63.3266C67.5675 70.9536 58.8543 75.9916 49.2363 77.4122C39.6182 78.8327 29.8206 76.5285 21.8438 70.9701C13.867 65.4117 8.31262 57.0183 6.31455 47.5034C4.31649 37.9886 6.02548 28.0698 11.0926 19.7723C16.1597 11.4748 24.2029 5.42417 33.5799 2.85583" stroke="#40DDB6" stroke-width="3" stroke-linecap="round" stroke-linejoin="round"/>
<path d="M27.9611 41.5605C28.0678 42.1472 28.3078 42.6005 28.6811 42.9205C29.0678 43.2272 29.5811 43.3805 30.2211 43.3805C31.0478 43.3805 31.6478 43.0405 32.0211 42.3605C32.3945 41.6672 32.5811 40.5072 32.5811 38.8805C32.2745 39.3072 31.8411 39.6405 31.2811 39.8805C30.7345 40.1205 30.1411 40.2405 29.5011 40.2405C28.6478 40.2405 27.8745 40.0672 27.1811 39.7205C26.5011 39.3605 25.9611 38.8339 25.5611 38.1405C25.1611 37.4339 24.9611 36.5805 24.9611 35.5805C24.9611 34.1005 25.4011 32.9272 26.2811 32.0605C27.1611 31.1805 28.3611 30.7405 29.8811 30.7405C31.7745 30.7405 33.1078 31.3472 33.8811 32.5605C34.6678 33.7739 35.0611 35.6005 35.0611 38.0405C35.0611 39.7739 34.9078 41.1939 34.6011 42.3005C34.3078 43.4072 33.7945 44.2472 33.0611 44.8205C32.3411 45.3939 31.3545 45.6805 30.1011 45.6805C29.1145 45.6805 28.2745 45.4939 27.5811 45.1205C26.8878 44.7339 26.3545 44.2339 25.9811 43.6205C25.6211 42.9939 25.4145 42.3072 25.3611 41.5605H27.9611ZM30.0811 37.9605C30.7745 37.9605 31.3211 37.7472 31.7211 37.3205C32.1211 36.8939 32.3211 36.3205 32.3211 35.6005C32.3211 34.8139 32.1078 34.2072 31.6811 33.7805C31.2678 33.3405 30.7011 33.1205 29.9811 33.1205C29.2611 33.1205 28.6878 33.3472 28.2611 33.8005C27.8478 34.2405 27.6411 34.8272 27.6411 35.5605C27.6411 36.2672 27.8411 36.8472 28.2411 37.3005C28.6545 37.7405 29.2678 37.9605 30.0811 37.9605ZM47.0407 33.5005H40.5607V36.9205C40.8407 36.5739 41.2407 36.2939 41.7607 36.0805C42.2807 35.8539 42.834 35.7405 43.4207 35.7405C44.4873 35.7405 45.3607 35.9739 46.0407 36.4405C46.7207 36.9072 47.214 37.5072 47.5207 38.2405C47.8273 38.9605 47.9807 39.7339 47.9807 40.5605C47.9807 42.0939 47.5407 43.3272 46.6607 44.2605C45.794 45.1939 44.554 45.6605 42.9407 45.6605C41.4207 45.6605 40.2073 45.2805 39.3007 44.5205C38.394 43.7605 37.8807 42.7672 37.7607 41.5405H40.4807C40.6007 42.0739 40.8673 42.5005 41.2807 42.8205C41.7073 43.1405 42.2473 43.3005 42.9007 43.3005C43.6873 43.3005 44.2807 43.0539 44.6807 42.5605C45.0807 42.0672 45.2807 41.4139 45.2807 40.6005C45.2807 39.7739 45.074 39.1472 44.6607 38.7205C44.2607 38.2805 43.6673 38.0605 42.8807 38.0605C42.3207 38.0605 41.854 38.2005 41.4807 38.4805C41.1073 38.7605 40.8407 39.1339 40.6807 39.6005H38.0007V31.0405H47.0407V33.5005ZM49.7918 34.6605C49.7918 33.6472 50.0851 32.8539 50.6718 32.2805C51.2718 31.7072 52.0384 31.4205 52.9718 31.4205C53.9051 31.4205 54.6651 31.7072 55.2518 32.2805C55.8518 32.8539 56.1518 33.6472 56.1518 34.6605C56.1518 35.6872 55.8518 36.4872 55.2518 37.0605C54.6651 37.6339 53.9051 37.9205 52.9718 37.9205C52.0384 37.9205 51.2718 37.6339 50.6718 37.0605C50.0851 36.4872 49.7918 35.6872 49.7918 34.6605ZM62.6318 31.6605L54.7718 45.6605H52.0518L59.8918 31.6605H62.6318ZM52.9518 33.1005C52.2184 33.1005 51.8518 33.6205 51.8518 34.6605C51.8518 35.7139 52.2184 36.2405 52.9518 36.2405C53.3118 36.2405 53.5918 36.1139 53.7918 35.8605C53.9918 35.5939 54.0918 35.1939 54.0918 34.6605C54.0918 33.6205 53.7118 33.1005 52.9518 33.1005ZM58.5718 42.6405C58.5718 41.6139 58.8651 40.8205 59.4518 40.2605C60.0518 39.6872 60.8184 39.4005 61.7518 39.4005C62.6851 39.4005 63.4384 39.6872 64.0118 40.2605C64.5984 40.8205 64.8918 41.6139 64.8918 42.6405C64.8918 43.6672 64.5984 44.4672 64.0118 45.0405C63.4384 45.6139 62.6851 45.9005 61.7518 45.9005C60.8051 45.9005 60.0384 45.6139 59.4518 45.0405C58.8651 44.4672 58.5718 43.6672 58.5718 42.6405ZM61.7318 41.0805C60.9718 41.0805 60.5918 41.6005 60.5918 42.6405C60.5918 43.6939 60.9718 44.2205 61.7318 44.2205C62.4784 44.2205 62.8518 43.6939 62.8518 42.6405C62.8518 41.6005 62.4784 41.0805 61.7318 41.0805Z" fill="white"/>
</g>
<defs>
<filter id="filter0_d_1_3755" x="0" y="0" width="87.3213" height="87.3218" filterUnits="userSpaceOnUse" color-interpolation-filters="sRGB">
<feFlood flood-opacity="0" result="BackgroundImageFix"/>
<feColorMatrix in="SourceAlpha" type="matrix" values="0 0 0 0 0 0 0 0 0 0 0 0 0 0 0 0 0 0 127 0" result="hardAlpha"/>
<feOffset dy="4"/>
<feGaussianBlur stdDeviation="2"/>
<feComposite in2="hardAlpha" operator="out"/>
<feColorMatrix type="matrix" values="0 0 0 0 0 0 0 0 0 0 0 0 0 0 0 0 0 0 0.25 0"/>
<feBlend mode="normal" in2="BackgroundImageFix" result="effect1_dropShadow_1_3755"/>
<feBlend mode="normal" in="SourceGraphic" in2="effect1_dropShadow_1_3755" result="shape"/>
</filter>
</defs>
</svg>
