<svg width="18" height="17" viewBox="0 0 18 17" fill="none" xmlns="http://www.w3.org/2000/svg">
<path d="M3.5 6.66667C3.5 6.29848 3.79848 6 4.16667 6H4.2619C4.63009 6 4.92857 6.29848 4.92857 6.66667C4.92857 7.03486 4.63009 7.33333 4.2619 7.33333H4.16667C3.79848 7.33333 3.5 7.03486 3.5 6.66667ZM3.5 9.33333C3.5 8.96514 3.79848 8.66667 4.16667 8.66667H4.2619C4.63009 8.66667 4.92857 8.96514 4.92857 9.33333C4.92857 9.70152 4.63009 10 4.2619 10H4.16667C3.79848 10 3.5 9.70152 3.5 9.33333ZM12.0714 9.33333C12.0714 8.96514 12.3699 8.66667 12.7381 8.66667H12.8333C13.2015 8.66667 13.5 8.96514 13.5 9.33333C13.5 9.70152 13.2015 10 12.8333 10H12.7381C12.3699 10 12.0714 9.70152 12.0714 9.33333ZM12.0714 6.66667C12.0714 6.29848 12.3699 6 12.7381 6H12.8333C13.2015 6 13.5 6.29848 13.5 6.66667C13.5 7.03486 13.2015 7.33333 12.8333 7.33333H12.7381C12.3699 7.33333 12.0714 7.03486 12.0714 6.66667ZM6.35714 6.66667C6.35714 6.29848 6.65562 6 7.02381 6H7.11905C7.48724 6 7.78571 6.29848 7.78571 6.66667C7.78571 7.03486 7.48724 7.33333 7.11905 7.33333H7.02381C6.65562 7.33333 6.35714 7.03486 6.35714 6.66667ZM9.21429 6.66667C9.21429 6.29848 9.51276 6 9.88095 6H9.97619C10.3444 6 10.6429 6.29848 10.6429 6.66667C10.6429 7.03486 10.3444 7.33333 9.97619 7.33333H9.88095C9.51276 7.33333 9.21429 7.03486 9.21429 6.66667ZM9.21429 9.33333C9.21429 8.96514 9.51276 8.66667 9.88095 8.66667H9.97619C10.3444 8.66667 10.6429 8.96514 10.6429 9.33333C10.6429 9.70152 10.3444 10 9.97619 10H9.88095C9.51276 10 9.21429 9.70152 9.21429 9.33333ZM6.35714 9.33333C6.35714 8.96514 6.65562 8.66667 7.02381 8.66667H7.11905C7.48724 8.66667 7.78571 8.96514 7.78571 9.33333C7.78571 9.70152 7.48724 10 7.11905 10H7.02381C6.65562 10 6.35714 9.70152 6.35714 9.33333Z" fill="white"/>
<path d="M3.5 11.6667C3.5 11.2985 3.79848 11 4.16667 11H4.2619C4.63009 11 4.92857 11.2985 4.92857 11.6667C4.92857 12.0349 4.63009 12.3333 4.2619 12.3333H4.16667C3.79848 12.3333 3.5 12.0349 3.5 11.6667ZM6.35714 11.6667C6.35714 11.2985 6.65562 11 7.02381 11H7.11905C7.48724 11 7.78571 11.2985 7.78571 11.6667C7.78571 12.0349 7.48724 12.3333 7.11905 12.3333H7.02381C6.65562 12.3333 6.35714 12.0349 6.35714 11.6667ZM9.21429 11.6667C9.21429 11.2985 9.51276 11 9.88095 11H9.97619C10.3444 11 10.6429 11.2985 10.6429 11.6667C10.6429 12.0349 10.3444 12.3333 9.97619 12.3333H9.88095C9.51276 12.3333 9.21429 12.0349 9.21429 11.6667Z" fill="white"/>
<path d="M15.7214 13.4445H13.0547V10.7778H13.9436V12.5556H15.7214V13.4445Z" fill="white"/>
<path d="M13.5 9.88889C15.1889 9.88889 16.6111 11.3111 16.6111 13C16.6111 14.6889 15.1889 16.1111 13.5 16.1111C11.8111 16.1111 10.3889 14.6889 10.3889 13C10.3889 11.3111 11.8111 9.88889 13.5 9.88889ZM13.5 9C11.2778 9 9.5 10.7778 9.5 13C9.5 15.2222 11.2778 17 13.5 17C15.7222 17 17.5 15.2222 17.5 13C17.5 10.7778 15.7222 9 13.5 9Z" fill="white"/>
<path d="M1.18829 2.54547C1.30885 2.42491 1.47236 2.35718 1.64286 2.35718H15.3571C15.5276 2.35718 15.6912 2.42491 15.8117 2.54547C15.9323 2.66602 16 2.82954 16 3.00003V8.66116C16.3653 8.87075 16.7011 9.12519 17 9.41715V3.00003C17 2.56432 16.8269 2.14645 16.5188 1.83836C16.2107 1.53026 15.7929 1.35718 15.3571 1.35718H1.64286C1.20714 1.35718 0.789277 1.53026 0.481182 1.83836C0.173086 2.14645 0 2.56432 0 3.00003V14.4286C0 14.8643 0.173086 15.2822 0.481182 15.5903C0.789277 15.8984 1.20714 16.0715 1.64286 16.0715H9.54392C9.30635 15.765 9.10384 15.4297 8.94218 15.0715H1.64286C1.47236 15.0715 1.30885 15.0037 1.18829 14.8832C1.06773 14.7626 1 14.5991 1 14.4286V3.00003C1 2.82954 1.06773 2.66603 1.18829 2.54547Z" fill="white"/>
<rect x="3.5" width="1" height="4" rx="0.5" fill="white"/>
<rect x="8" width="1" height="4" rx="0.5" fill="white"/>
<rect x="12.5" width="1" height="4" rx="0.5" fill="white"/>
</svg>
