<svg width="187" height="226" viewBox="0 0 187 226" fill="none" xmlns="http://www.w3.org/2000/svg">
<path d="M139.036 311.392C129.016 311.577 119.428 308.864 110.121 306.205C104.444 304.6 98.5862 302.938 92.6502 301.917C74.4665 298.774 55.9699 298.705 37.789 301.71L34.7184 302.227C21.6556 304.468 6.88681 306.992 -3.67557 297.835C-11.6849 290.862 -15.5583 278.631 -15.5071 260.437C-15.4745 248.544 -16.1752 239.376 -17.7151 231.583C-19.7064 221.298 -23.3054 213.683 -28.3126 208.825C-34.1351 203.221 -42.1608 201.209 -52.1635 202.854C-56.3927 203.542 -60.6846 204.742 -64.8241 205.899C-72.557 208.042 -80.5493 210.28 -88.5013 209.336C-89.1964 209.249 -89.8918 209.142 -90.5696 209.014C-96.9661 207.709 -102.922 204.472 -107.782 199.661C-112.72 194.851 -116.705 188.957 -119.486 182.354C-125.446 168.352 -126.341 152.545 -126.422 140.345C-126.625 123.597 -125.678 106.862 -123.591 90.284C-121.097 71.2347 -117.036 55.0969 -111.509 42.2327C-106.323 30.1226 -98.5041 19.6439 -88.7553 11.7373C-78.3693 3.54413 -66.9493 -0.357412 -55.7279 0.595538C-44.9035 1.50581 -34.9006 6.70199 -25.2161 11.724C-21.2424 13.781 -17.1323 15.9054 -13.0373 17.7001C-1.77487 22.6113 10.1569 25.3378 22.2361 25.7602C34.3175 26.2324 46.3793 24.5027 57.9416 20.64C63.6637 18.6149 69.284 16.2542 74.7789 13.5678C89.9054 6.51731 104.193 -0.137641 122.512 8.1755C132.766 12.8469 141.197 22.1728 146.822 35.1312C151.77 46.5218 154.405 60.4355 154.256 74.3106C154.093 88.8961 151.624 103.464 149.236 117.561C147.312 128.918 145.312 140.637 144.547 152.363C143.69 165.461 144.332 184.603 152.28 201.429C155.889 209.083 161.214 215.526 166.372 221.762C170.748 227.052 175.28 232.529 178.837 238.805C183.072 246.268 187.844 257.852 186.549 270.668C185.505 280.929 180.608 290.331 172.461 297.843C164.721 304.853 155.385 309.354 145.475 310.853C143.341 311.175 141.191 311.355 139.036 311.392ZM61.4871 298.432C71.9588 298.251 82.4289 299.061 92.7837 300.854C98.7739 301.884 104.659 303.556 110.354 305.171C122.123 308.504 133.178 311.65 145.356 309.795C155.084 308.315 164.247 303.889 171.842 297.004C179.812 289.665 184.57 280.526 185.574 270.546C186.839 258.07 182.162 246.735 178.01 239.42C174.501 233.234 170.005 227.796 165.657 222.535C160.462 216.25 155.09 209.728 151.417 201.975C143.365 184.911 142.71 165.549 143.574 152.311C144.347 140.555 146.345 128.776 148.278 117.378C150.658 103.332 153.154 88.8134 153.273 74.2787C153.425 60.5736 150.821 46.8393 145.948 35.5974C140.436 22.887 132.207 13.7574 122.152 9.1923C104.196 1.05248 90.0971 7.63396 75.158 14.591C69.6364 17.291 63.9894 19.6655 58.2405 21.7046C46.5854 25.6002 34.426 27.3419 22.2475 26.8601C10.0411 26.4449 -2.01723 23.6935 -13.3966 18.7269C-17.5278 16.9229 -21.6471 14.7886 -25.63 12.7218C-35.2505 7.74863 -45.1893 2.61128 -55.7976 1.69701C-66.7846 0.759735 -77.9815 4.54715 -88.1713 12.6367C-97.7963 20.4432 -105.515 30.7896 -110.635 42.7466C-116.119 55.5101 -120.154 71.5773 -122.633 90.4863C-124.714 106.998 -125.655 123.666 -125.449 140.347C-125.352 152.437 -124.496 168.094 -118.612 181.898C-115.891 188.361 -111.99 194.131 -107.158 198.839C-102.435 203.514 -96.6501 206.663 -90.4364 207.942C-89.7767 208.06 -89.0993 208.167 -88.4314 208.245C-80.651 209.161 -72.7482 206.955 -65.0784 204.813C-60.9118 203.656 -56.6019 202.456 -52.319 201.747C-42.02 200.056 -33.7225 202.154 -27.6707 207.983C-22.4992 212.958 -18.8235 220.822 -16.7469 231.345C-15.1965 239.218 -14.4945 248.456 -14.5255 260.429C-14.5744 278.263 -10.8232 290.216 -3.0434 296.953C1.53207 300.869 7.27156 302.954 14.5984 303.208C21.0512 303.439 27.9112 302.313 34.5191 301.19L37.5985 300.663C45.5068 299.339 53.4868 298.594 61.4871 298.432Z" fill="white" fill-opacity="0.57"/>
</svg>
