<svg width="58" height="57" viewBox="0 0 58 57" fill="none" xmlns="http://www.w3.org/2000/svg">
<g clip-path="url(#clip0_1_306)">
<path d="M50.4144 22.6253C48.0873 17.8853 44.2533 14.0513 39.5134 11.7243L39.5021 11.713C39.5021 11.713 41.3241 9.83437 41.9578 9.24589C42.1696 9.03228 42.2877 8.74314 42.286 8.44239C42.2597 8.18338 42.1703 7.93469 42.0257 7.71811L35.9373 0.407409C35.7218 0.148819 35.4024 -0.000564242 35.0658 1.60172e-06H22.9115C22.5788 0.0159867 22.2658 0.162399 22.0401 0.407409L15.963 7.69548C15.8088 7.9071 15.7184 8.15848 15.7027 8.41976C15.7212 8.71626 15.8365 8.99847 16.0309 9.22326L18.4866 11.7243C6.65978 17.5307 1.77924 31.8252 7.58564 43.652C13.392 55.4789 27.6865 60.3594 39.5134 54.553C51.3402 48.7467 56.2208 34.4521 50.4144 22.6253ZM35.5412 3.45165L38.7438 7.27675H34.3529L35.5412 3.45165ZM38.4609 9.54013L31.4558 16.6698L33.6626 9.54013H38.4609ZM28.1852 21.5813C28.4022 21.7894 28.6882 21.9103 28.9887 21.9208C29.2858 21.8959 29.5673 21.7769 29.7922 21.5813L33.8097 17.4959C42.4191 20.1616 47.2376 29.3019 44.5719 37.9114C41.9062 46.5209 32.7658 51.3393 24.1564 48.6736C15.5469 46.0079 10.7285 36.8676 13.3942 28.2581C14.9866 23.115 19.0133 19.0883 24.1564 17.4959L28.1852 21.5813ZM26.7253 9.54013H31.2521L28.9887 16.9527L26.7253 9.54013ZM33.5154 2.25206L32.5196 5.45474L30.856 2.26338L33.5154 2.25206ZM30.9239 7.27675H27.0309L28.9887 3.58745L30.9239 7.27675ZM27.1214 2.26338L25.4352 5.46605L24.4619 2.26338H27.1214ZM26.5329 16.6811L21.2253 11.2716L19.5278 9.55145H24.3261L26.5329 16.6811ZM22.4362 3.45165L23.5679 7.27675H19.2449L22.4362 3.45165ZM28.9887 54.7058C17.0696 54.7032 7.40952 45.0388 7.41207 33.1198C7.41391 24.6194 12.4055 16.9118 20.1615 13.4331L22.4249 15.6965C12.8285 19.334 7.99786 30.0624 11.6354 39.6589C15.2729 49.2553 26.0013 54.0859 35.5977 50.4484C45.1942 46.8108 50.0248 36.0825 46.3873 26.486C44.5013 21.5107 40.5731 17.5825 35.5977 15.6965L37.8611 13.4331C48.7364 18.3109 53.5984 31.0811 48.7208 41.9563C45.2353 49.7273 37.5056 54.7218 28.9887 54.7058Z" fill="white"/>
</g>
<defs>
<clipPath id="clip0_1_306">
<rect width="57" height="57" fill="white" transform="translate(0.5)"/>
</clipPath>
</defs>
</svg>
