<svg width="28" height="28" viewBox="0 0 28 28" fill="none" xmlns="http://www.w3.org/2000/svg">
<circle cx="14" cy="13.8186" r="13.8186" fill="#FAC70F"/>
<path d="M19.586 10.6129C19.1792 10.7929 18.7478 10.9111 18.3061 10.9637C18.7729 10.6852 19.1222 10.2461 19.2887 9.72869C18.8516 9.98884 18.3731 10.1722 17.8741 10.2707C17.5386 9.91286 17.0944 9.67577 16.6104 9.59618C16.1265 9.51659 15.6298 9.59896 15.1974 9.8305C14.765 10.062 14.4211 10.4298 14.2191 10.8768C14.0171 11.3237 13.9682 11.8248 14.0801 12.3024C13.1943 12.2579 12.3278 12.0276 11.5368 11.6265C10.7458 11.2254 10.048 10.6624 9.48864 9.97413C9.20373 10.4647 9.1164 11.0453 9.24442 11.5979C9.37243 12.1505 9.70618 12.6336 10.1777 12.9489C9.82483 12.9373 9.47977 12.8418 9.17118 12.6702V12.698C9.17071 13.2119 9.34779 13.7101 9.67245 14.1085C9.9971 14.5068 10.4494 14.7807 10.9528 14.8838C10.6245 14.9728 10.2804 14.986 9.94623 14.9225C10.0882 15.3656 10.3652 15.7531 10.7384 16.0308C11.1116 16.3085 11.5624 16.4624 12.0275 16.4711C11.5654 16.8341 11.0364 17.1024 10.4705 17.2608C9.90469 17.4191 9.31319 17.4644 8.72984 17.394C9.74823 18.0488 10.9337 18.3964 12.1444 18.3952C12.9789 18.401 13.8061 18.2408 14.5781 17.924C15.3501 17.6072 16.0514 17.14 16.6413 16.5498C17.2311 15.9595 17.6977 15.2578 18.014 14.4856C18.3302 13.7134 18.4898 12.886 18.4834 12.0515C18.4834 11.9555 18.4834 11.8587 18.4765 11.7635C18.9116 11.4491 19.2873 11.0597 19.586 10.6137V10.6129Z" fill="black"/>
</svg>
